<?xml version="1.0" encoding="utf-8"?>
<!-- Generator: Adobe Illustrator 25.0.0, SVG Export Plug-In . SVG Version: 6.00 Build 0)  -->
<svg version="1.1" id="Capa_1" xmlns="http://www.w3.org/2000/svg" xmlns:xlink="http://www.w3.org/1999/xlink" x="0px" y="0px"
	 viewBox="0 0 24 24" style="enable-background:new 0 0 24 24;" xml:space="preserve">
<style type="text/css">
	.st0{fill:#FFFFFF;}
</style>
<g id="info">
</g>
<g id="icons">
	<g id="menu">
		<path class="st0" d="M20,10H4c-1.1,0-2,0.9-2,2s0.9,2,2,2h16c1.1,0,2-0.9,2-2S21.1,10,20,10z"/>
		<path class="st0" d="M4,8h12c1.1,0,2-0.9,2-2s-0.9-2-2-2H4C2.9,4,2,4.9,2,6S2.9,8,4,8z"/>
		<path class="st0" d="M16,16H4c-1.1,0-2,0.9-2,2s0.9,2,2,2h12c1.1,0,2-0.9,2-2S17.1,16,16,16z"/>
	</g>
</g>
</svg>
